<svg version="1.1" id="Layer_1" xmlns="http://www.w3.org/2000/svg" xmlns:xlink="http://www.w3.org/1999/xlink" x="0px" y="0px"
	 width="100%" viewBox="0 0 512 512" enable-background="new 0 0 512 512" xml:space="preserve">
<path fill="#000000" opacity="1.000000" stroke="none" 
	d="
M44.999992,513.000000 
	C30.341396,513.000000 15.682794,513.000000 1.018143,513.000000 
	C1.012095,342.435242 1.012095,171.870453 1.012095,1.000000 
	C80.687302,1.000000 160.374985,1.000000 240.772507,1.313745 
	C236.456635,5.676900 235.881989,11.074038 235.901031,17.162111 
	C236.050903,65.068451 235.942230,112.975601 235.608307,161.026550 
	C225.160873,170.320831 215.454544,180.022934 204.760712,188.475693 
	C192.569534,198.111954 179.602325,206.786667 166.769012,215.582535 
	C159.349731,220.667679 151.529404,225.167709 143.527359,229.961411 
	C131.679565,235.878326 120.237885,241.852539 108.699471,247.633652 
	C82.987747,260.516113 56.267281,270.947906 28.997053,279.990021 
	C18.499210,283.470886 10.665553,291.475525 12.176991,303.592102 
	C13.103818,311.022034 16.244448,318.147522 17.789610,325.535492 
	C19.969822,335.959747 33.722786,344.842102 44.719734,341.034088 
	C56.427727,336.979767 68.184418,333.066101 79.951569,329.521484 
	C78.164932,339.951630 77.076614,350.153992 74.369514,359.907043 
	C69.409393,377.777222 63.725254,395.458557 57.914284,413.077240 
	C51.507961,432.501038 41.980225,450.514923 32.295273,468.472931 
	C29.552628,473.558411 27.148237,479.703522 27.301895,485.287994 
	C27.605553,496.323853 32.783268,505.388489 43.153645,510.724243 
	C43.948891,511.133392 44.392780,512.225403 44.999992,513.000000 
z"/>
<path fill="#000000" opacity="1.000000" stroke="none" 
	d="
M273.000000,0.999999 
	C352.956024,1.000000 432.912079,1.000000 512.934082,1.000000 
	C512.934082,171.666656 512.934082,342.333313 512.934082,513.000000 
	C498.588196,513.000000 484.262756,513.000000 469.162598,512.711914 
	C469.000244,511.938324 469.551392,511.332672 470.233948,510.984833 
	C486.853729,502.513885 490.825409,484.158875 481.881439,468.523834 
	C471.183899,449.823364 461.618286,430.546631 454.768616,410.138885 
	C448.562592,391.648834 443.266052,372.833832 438.178070,353.997467 
	C435.996246,345.920105 435.357208,337.426025 434.399048,329.071564 
	C445.831390,333.001404 456.737946,337.460236 467.970306,340.834473 
	C480.894043,344.716858 493.093506,337.425751 496.803833,324.536285 
	C498.405396,318.972534 500.035156,313.416931 501.653412,307.858002 
	C503.991699,299.825562 500.210907,288.021637 492.854248,284.160095 
	C485.654877,280.381104 477.706024,278.044220 470.131683,274.962463 
	C451.184296,267.253357 431.886169,260.274139 413.433655,251.516876 
	C393.886902,242.240326 374.891541,231.702133 356.155670,220.851074 
	C343.182404,213.337479 330.516357,205.054794 318.692871,195.856308 
	C304.609619,184.899765 291.574371,172.596222 278.054749,160.416290 
	C278.044708,140.984604 278.064941,122.012932 278.545593,103.025528 
	C314.775879,103.009209 350.546387,103.105782 386.314667,102.866493 
	C390.136444,102.840927 394.384857,101.594727 397.675842,99.637604 
	C406.858368,94.176781 411.534424,86.043587 409.909058,74.529152 
	C409.988220,61.733589 409.804779,49.397892 410.052582,37.070869 
	C410.307343,24.395229 400.495209,12.426530 385.989624,12.146294 
	C361.340057,11.670081 336.672791,12.110763 311.548584,12.092813 
	C300.075439,11.999426 289.066620,11.979353 278.034546,11.570423 
	C277.307739,9.261088 276.744324,7.272812 275.857971,5.440769 
	C275.096954,3.867787 273.966888,2.473376 273.000000,0.999999 
z"/>
<path fill="#E2E1F3" opacity="1.000000" stroke="none" 
	d="
M434.017212,329.121277 
	C435.357208,337.426025 435.996246,345.920105 438.178070,353.997467 
	C443.266052,372.833832 448.562592,391.648834 454.768616,410.138885 
	C461.618286,430.546631 471.183899,449.823364 481.881439,468.523834 
	C490.825409,484.158875 486.853729,502.513885 470.233948,510.984833 
	C469.551392,511.332672 469.000244,511.938324 468.693939,512.711914 
	C445.312439,513.000000 421.624878,513.000000 397.478699,512.531433 
	C395.917053,487.882812 399.782318,464.428436 407.282318,441.496460 
	C409.919128,433.434052 410.077209,425.126587 408.400299,416.961823 
	C404.647766,398.691376 393.469513,386.624451 376.121979,380.193665 
	C347.885101,369.726166 321.792969,355.360748 297.621552,337.430664 
	C295.270416,335.686646 292.535767,334.459656 289.783813,332.684937 
	C286.709900,321.956177 281.622589,313.252472 270.936951,308.449921 
	C251.206451,299.662170 230.412048,309.916962 224.932144,330.450653 
	C221.217545,344.369568 217.559494,358.349457 212.856262,371.949371 
	C202.329224,402.389374 187.975784,430.951996 168.495132,456.898743 
	C167.543625,456.083038 166.731384,455.433441 166.316452,454.588684 
	C159.145493,439.990173 151.135773,425.724121 145.089890,410.670319 
	C134.945236,385.410919 129.504364,358.949005 129.006790,331.613220 
	C128.862671,323.695099 128.925629,315.773163 128.946014,307.670624 
	C128.998352,307.488251 129.106613,307.124664 129.458344,307.055573 
	C154.840897,295.242035 179.264969,282.353455 202.309006,267.048645 
	C215.597946,258.222748 228.481186,248.775024 241.390579,239.391953 
	C252.550323,231.280579 261.769562,231.182663 272.776642,239.573593 
	C274.098816,240.581543 275.313385,241.731262 276.641571,242.730515 
	C319.025452,274.617004 365.102875,299.948944 414.040527,320.224640 
	C420.772522,323.013794 427.361816,326.147217 434.017212,329.121277 
z"/>
<path fill="#C7C7F2" opacity="1.000000" stroke="none" 
	d="
M128.893661,307.852997 
	C128.925629,315.773163 128.862671,323.695099 129.006790,331.613220 
	C129.504364,358.949005 134.945236,385.410919 145.089890,410.670319 
	C151.135773,425.724121 159.145493,439.990173 166.316452,454.588684 
	C166.731384,455.433441 167.543625,456.083038 168.401581,457.214600 
	C153.717896,478.210999 136.387100,496.563812 117.000000,513.000000 
	C93.312439,513.000000 69.624878,513.000000 45.468651,513.000000 
	C44.392780,512.225403 43.948891,511.133392 43.153645,510.724243 
	C32.783268,505.388489 27.605553,496.323853 27.301895,485.287994 
	C27.148237,479.703522 29.552628,473.558411 32.295273,468.472931 
	C41.980225,450.514923 51.507961,432.501038 57.914284,413.077240 
	C63.725254,395.458557 69.409393,377.777222 74.369514,359.907043 
	C77.076614,350.153992 78.164932,339.951630 80.267876,329.348999 
	C81.239197,328.284607 81.872528,327.696930 82.620552,327.380219 
	C98.037079,320.852600 113.466667,314.355865 128.893661,307.852997 
z"/>
<path fill="#5F66AB" opacity="1.000000" stroke="none" 
	d="
M271.185242,308.708588 
	C281.622589,313.252472 286.709900,321.956177 289.748779,333.095306 
	C292.655029,343.897736 294.955444,354.128937 298.221222,364.042053 
	C316.028503,418.094757 344.481354,465.483337 386.730591,504.128204 
	C389.885651,507.014130 392.913177,510.039459 396.000000,513.000000 
	C354.645782,513.000000 313.291534,513.000000 271.427673,512.648804 
	C269.788513,510.275177 268.726471,508.211487 267.519562,506.236298 
	C244.906342,469.228088 236.271790,429.269073 241.905441,386.208893 
	C245.589310,358.051666 255.463394,332.289551 271.185242,308.708588 
z"/>
<path fill="#4C5792" opacity="1.000000" stroke="none" 
	d="
M270.936951,308.449921 
	C255.463394,332.289551 245.589310,358.051666 241.905441,386.208893 
	C236.271790,429.269073 244.906342,469.228088 267.519562,506.236298 
	C268.726471,508.211487 269.788513,510.275177 270.958984,512.648804 
	C219.979111,513.000000 168.958206,513.000000 117.468658,513.000000 
	C136.387100,496.563812 153.717896,478.210999 168.725754,457.289886 
	C187.975784,430.951996 202.329224,402.389374 212.856262,371.949371 
	C217.559494,358.349457 221.217545,344.369568 224.932144,330.450653 
	C230.412048,309.916962 251.206451,299.662170 270.936951,308.449921 
z"/>
<path fill="#C7C7F2" opacity="1.000000" stroke="none" 
	d="
M396.250000,513.000000 
	C392.913177,510.039459 389.885651,507.014130 386.730591,504.128204 
	C344.481354,465.483337 316.028503,418.094757 298.221222,364.042053 
	C294.955444,354.128937 292.655029,343.897736 289.944092,333.403015 
	C292.535767,334.459656 295.270416,335.686646 297.621552,337.430664 
	C321.792969,355.360748 347.885101,369.726166 376.121979,380.193665 
	C393.469513,386.624451 404.647766,398.691376 408.400299,416.961823 
	C410.077209,425.126587 409.919128,433.434052 407.282318,441.496460 
	C399.782318,464.428436 395.917053,487.882812 397.010010,512.531433 
	C397.000000,513.000000 396.500000,513.000000 396.250000,513.000000 
z"/>
<path fill="#5F66AB" opacity="1.000000" stroke="none" 
	d="
M278.085205,103.041252 
	C278.064941,122.012932 278.044708,140.984604 277.722107,160.347015 
	C269.135376,154.313431 259.880066,151.241135 249.601990,154.259903 
	C244.804535,155.668976 240.461945,158.626709 235.913193,160.882507 
	C235.942230,112.975601 236.050903,65.068451 235.901031,17.162111 
	C235.881989,11.074038 236.456635,5.676900 241.241165,1.313745 
	C251.354233,1.000000 261.708466,1.000000 272.531342,0.999999 
	C273.966888,2.473376 275.096954,3.867787 275.857971,5.440769 
	C276.744324,7.272812 277.307739,9.261088 278.027496,11.830756 
	C278.068665,12.651883 278.093628,12.823820 278.067413,13.462208 
	C278.039215,43.632854 278.062195,73.337051 278.085205,103.041252 
z"/>
<path fill="#71DAF9" opacity="1.000000" stroke="none" 
	d="
M235.608307,161.026550 
	C240.461945,158.626709 244.804535,155.668976 249.601990,154.259903 
	C259.880066,151.241135 269.135376,154.313431 277.752441,160.807007 
	C291.574371,172.596222 304.609619,184.899765 318.692871,195.856308 
	C330.516357,205.054794 343.182404,213.337479 356.155670,220.851074 
	C374.891541,231.702133 393.886902,242.240326 413.433655,251.516876 
	C431.886169,260.274139 451.184296,267.253357 470.131683,274.962463 
	C477.706024,278.044220 485.654877,280.381104 492.854248,284.160095 
	C500.210907,288.021637 503.991699,299.825562 501.653412,307.858002 
	C500.035156,313.416931 498.405396,318.972534 496.803833,324.536285 
	C493.093506,337.425751 480.894043,344.716858 467.970306,340.834473 
	C456.737946,337.460236 445.831390,333.001404 434.399017,329.071564 
	C427.361816,326.147217 420.772522,323.013794 414.040527,320.224640 
	C365.102875,299.948944 319.025452,274.617004 276.641571,242.730515 
	C275.313385,241.731262 274.098816,240.581543 272.776642,239.573593 
	C261.769562,231.182663 252.550323,231.280579 241.390579,239.391953 
	C228.481186,248.775024 215.597946,258.222748 202.309006,267.048645 
	C179.264969,282.353455 154.840897,295.242035 129.419159,306.586304 
	C130.602036,293.232544 131.464615,280.140564 133.950653,267.364532 
	C136.410950,254.720795 140.509583,242.395859 143.889572,229.931076 
	C151.529404,225.167709 159.349731,220.667679 166.769012,215.582535 
	C179.602325,206.786667 192.569534,198.111954 204.760712,188.475693 
	C215.454544,180.022934 225.160873,170.320831 235.608307,161.026550 
z"/>
<path fill="#31C3EF" opacity="1.000000" stroke="none" 
	d="
M143.527359,229.961411 
	C140.509583,242.395859 136.410950,254.720795 133.950653,267.364532 
	C131.464615,280.140564 130.602036,293.232544 129.067444,306.655396 
	C129.106613,307.124664 128.998352,307.488251 128.946014,307.670624 
	C113.466667,314.355865 98.037079,320.852600 82.620552,327.380219 
	C81.872528,327.696930 81.239197,328.284607 80.236160,328.918579 
	C68.184418,333.066101 56.427727,336.979767 44.719734,341.034088 
	C33.722786,344.842102 19.969822,335.959747 17.789610,325.535492 
	C16.244448,318.147522 13.103818,311.022034 12.176991,303.592102 
	C10.665553,291.475525 18.499210,283.470886 28.997053,279.990021 
	C56.267281,270.947906 82.987747,260.516113 108.699471,247.633652 
	C120.237885,241.852539 131.679565,235.878326 143.527359,229.961411 
z"/>
<path fill="#30C3EF" opacity="1.000000" stroke="none" 
	d="
M278.545593,103.025528 
	C278.062195,73.337051 278.039215,43.632854 278.525543,13.463546 
	C290.016479,13.003217 300.998077,13.007999 312.137024,13.340916 
	C322.518585,43.259186 342.556946,62.842472 372.410370,72.197113 
	C384.611023,76.020218 397.147339,76.915146 409.835785,74.992828 
	C411.534424,86.043587 406.858368,94.176781 397.675842,99.637604 
	C394.384857,101.594727 390.136444,102.840927 386.314667,102.866493 
	C350.546387,103.105782 314.775879,103.009209 278.545593,103.025528 
z"/>
<path fill="#71DAF9" opacity="1.000000" stroke="none" 
	d="
M409.909058,74.529152 
	C397.147339,76.915146 384.611023,76.020218 372.410370,72.197113 
	C342.556946,62.842472 322.518585,43.259186 312.148224,13.129297 
	C312.002106,12.589546 312.012939,12.166129 312.012939,12.166129 
	C336.672791,12.110763 361.340057,11.670081 385.989624,12.146294 
	C400.495209,12.426530 410.307343,24.395229 410.052582,37.070869 
	C409.804779,49.397892 409.988220,61.733589 409.909058,74.529152 
z"/>
<path fill="#48CBF4" opacity="1.000000" stroke="none" 
	d="
M311.548584,12.092813 
	C312.012939,12.166129 312.002106,12.589546 311.990906,12.801165 
	C300.998077,13.007999 290.016479,13.003217 278.576721,12.997095 
	C278.093628,12.823820 278.068665,12.651883 278.050781,12.219614 
	C289.066620,11.979353 300.075439,11.999426 311.548584,12.092813 
z"/>
</svg>